<svg xmlns="http://www.w3.org/2000/svg" xmlns:xlink="http://www.w3.org/1999/xlink" width="589pt" height="508" viewBox="0 0 589 381"><defs><symbol overflow="visible" id="D"><path d="M8.785-11.09v1.348H5.297V0H3.742v-9.742H.258v-1.348zm0 0"/></symbol><symbol overflow="visible" id="b"><path d="M4.223-6.816a29.799 29.799 0 00-.809 1.785c-.25.613-.477 1.215-.687 1.808-.207.59-.391 1.16-.551 1.711C2.016-.96 1.883-.457 1.777 0H.257c.15-.617.34-1.281.575-1.984.234-.704.5-1.422.793-2.153.293-.73.605-1.46.934-2.191.332-.73.668-1.426 1.007-2.086-.191-.45-.359-.848-.511-1.195a5.097 5.097 0 00-.461-.871 1.745 1.745 0 00-.531-.528 1.285 1.285 0 00-.688-.176 2.066 2.066 0 00-.64.094l-.208-1.2c.055-.019.18-.046.375-.077.2-.031.426-.047.684-.047.363 0 .684.05.965.156.285.11.531.258.746.45.21.19.402.417.566.68.164.26.317.554.457.87.79 1.848 1.48 3.66 2.078 5.442A82.094 82.094 0 017.871 0h-1.55a200.96 200.96 0 00-.938-3.273 61.352 61.352 0 00-1.16-3.543zm0 0"/></symbol><symbol overflow="visible" id="h"><path d="M9.809-11.09V0H8.258v-9.762H2.93V0H1.375v-11.09zm0 0"/></symbol><symbol overflow="visible" id="j"><path d="M8.977 0a86.61 86.61 0 00-.809-1.328c-.305-.492-.633-1-.984-1.527A76.192 76.192 0 004.96-6.04a64.295 64.295 0 00-1.09-1.434c-.351-.449-.676-.843-.976-1.183V0h-1.52v-11.09h1.234c.5.535 1.036 1.156 1.606 1.867.57.707 1.137 1.438 1.695 2.192a61.3 61.3 0 011.586 2.215A43.63 43.63 0 018.754-2.88v-8.21h1.52V0zm0 0"/></symbol><symbol overflow="visible" id="k"><path d="M4.098-1.07c.351 0 .664-.008.933-.028.274-.015.5-.043.68-.086v-2.48c-.106-.055-.277-.098-.52-.137a6.09 6.09 0 00-1.582-.008c-.25.032-.48.098-.687.2-.211.101-.383.242-.524.418-.136.175-.207.406-.207.695 0 .535.172.902.512 1.113.344.207.805.313 1.395.313zm-.13-7.457c.598 0 1.102.078 1.512.23.41.156.743.375.993.656.25.282.43.621.535 1.008.105.39.16.82.16 1.29v5.198c-.129.024-.305.051-.535.09-.23.035-.488.07-.778.102-.289.031-.597.062-.933.09-.336.027-.672.039-1 .039-.469 0-.902-.047-1.297-.145a2.787 2.787 0 01-1.023-.457 2.072 2.072 0 01-.672-.82C.77-1.59.687-2 .687-2.48c0-.458.094-.852.282-1.184.187-.332.437-.598.758-.8.32-.204.695-.352 1.12-.446a6.004 6.004 0 011.344-.145c.149 0 .305.008.465.024.16.015.313.035.457.062.145.028.27.051.375.074.106.02.18.036.223.047v-.418c0-.246-.027-.488-.078-.726a1.678 1.678 0 00-.29-.64 1.415 1.415 0 00-.566-.446c-.242-.113-.554-.168-.937-.168-.492 0-.918.031-1.29.101-.366.07-.64.141-.823.215L1.55-8.16c.191-.086.512-.168.96-.246.45-.082.934-.121 1.458-.121zm0 0"/></symbol><symbol overflow="visible" id="l"><path d="M2.672-8.32h3.152v1.25H2.672v3.84c0 .414.031.757.098 1.03.062.27.16.485.285.641.129.153.289.262.48.329.192.062.418.093.672.093.45 0 .809-.05 1.082-.152.27-.102.461-.172.566-.215l.29 1.23c-.149.075-.41.169-.786.282a4.41 4.41 0 01-1.28.168c-.563 0-1.032-.07-1.4-.215a2.029 2.029 0 01-.886-.648 2.566 2.566 0 01-.473-1.067 7.039 7.039 0 01-.136-1.46v-7.427l1.488-.254zm0 0"/></symbol><symbol overflow="visible" id="p"><path d="M3.953-1.105c1.621 0 2.43-.555 2.43-1.665 0-.34-.07-.628-.215-.87a2.152 2.152 0 00-.582-.626 3.93 3.93 0 00-.844-.453 24.71 24.71 0 00-1-.386 9.795 9.795 0 01-1.148-.47 4.055 4.055 0 01-.946-.624 2.74 2.74 0 01-.632-.856c-.157-.332-.23-.73-.23-1.203 0-.969.327-1.726.991-2.27.66-.542 1.57-.816 2.735-.816.672 0 1.281.07 1.832.215.55.145.953.3 1.207.473l-.496 1.265c-.223-.14-.555-.277-1-.41C5.613-9.934 5.098-10 4.512-10c-.297 0-.574.031-.832.098a2.18 2.18 0 00-.672.285 1.475 1.475 0 00-.457.488c-.11.2-.168.43-.168.695 0 .301.058.551.176.754.117.203.285.383.496.535.215.157.46.297.746.426.281.13.594.254.933.383.48.191.922.383 1.32.574a4.25 4.25 0 011.044.692c.293.265.52.582.68.949.16.367.238.812.238 1.336 0 .973-.356 1.719-1.063 2.242-.71.523-1.71.781-3 .781a7.78 7.78 0 01-1.21-.086 9.26 9.26 0 01-.981-.207A6.053 6.053 0 01.527-.543l.465-1.281c.246.14.617.293 1.121.465.5.171 1.114.254 1.84.254zm0 0"/></symbol><symbol overflow="visible" id="q"><path d="M7.902-.238c-.34.086-.789.175-1.351.27-.559.097-1.207.144-1.942.144-.64 0-1.18-.094-1.617-.281a2.611 2.611 0 01-1.054-.79 3.198 3.198 0 01-.579-1.21 6.297 6.297 0 01-.175-1.543V-8.32h1.488v4.351c0 1.016.16 1.739.48 2.176.32.438.86.656 1.618.656.16 0 .324-.004.496-.015a13.872 13.872 0 00.886-.086c.121-.016.211-.035.262-.059V-8.32h1.488zm0 0"/></symbol><symbol overflow="visible" id="r"><path d="M4.895.191c-.672 0-1.262-.105-1.766-.32a3.542 3.542 0 01-1.281-.894 3.718 3.718 0 01-.778-1.368 5.764 5.764 0 01-.254-1.754c0-.64.094-1.226.282-1.757.187-.535.449-.996.789-1.387a3.607 3.607 0 011.258-.91A4.057 4.057 0 014.8-8.527c.37 0 .746.03 1.12.093.372.067.731.168 1.071.305l-.336 1.266a3.778 3.778 0 00-.777-.258 4.477 4.477 0 00-.934-.094c-.832 0-1.468.262-1.914.781-.441.524-.664 1.286-.664 2.29 0 .449.051.859.153 1.234.101.37.261.691.48.957.219.266.5.473.84.617.34.145.758.215 1.25.215.394 0 .75-.035 1.07-.11.32-.074.57-.156.75-.242l.211 1.25a1.93 1.93 0 01-.367.153c-.16.047-.344.09-.547.125-.203.039-.418.07-.648.097-.227.028-.45.04-.664.04zm0 0"/></symbol><symbol overflow="visible" id="t"><path d="M-.063 1.695h8v1.266h-8zm0 0"/></symbol><symbol overflow="visible" id="v"><path d="M8.414-9.855a39.876 39.876 0 00-1.887 2.297 72.23 72.23 0 00-2.246 3.101c-.367.539-.718 1.074-1.05 1.61a36.85 36.85 0 00-.895 1.519h6.238V0H.527v-1.04c.223-.425.489-.897.793-1.41a43.46 43.46 0 01.977-1.566A66.442 66.442 0 014.488-7.2c.367-.5.727-.972 1.07-1.41.348-.437.665-.82.954-1.152H.816v-1.328h7.598zm0 0"/></symbol><symbol overflow="visible" id="w"><path d="M.816-4.145c0-.734.106-1.378.32-1.925.212-.551.497-1.008.848-1.371A3.473 3.473 0 013.2-8.258c.461-.18.93-.27 1.41-.27 1.118 0 1.977.348 2.575 1.048.597.699.894 1.761.894 3.19v.25c0 .103-.004.196-.015.278H2.367c.067.864.317 1.524.754 1.969.438.45 1.117.672 2.047.672.523 0 .96-.043 1.32-.137.356-.09.625-.176.809-.262l.207 1.247c-.18.097-.5.199-.953.304a6.81 6.81 0 01-1.543.16c-.727 0-1.352-.109-1.88-.328a3.515 3.515 0 01-1.304-.902 3.743 3.743 0 01-.762-1.367 5.842 5.842 0 01-.246-1.739zm5.711-.816c.012-.672-.156-1.223-.504-1.656-.347-.43-.824-.649-1.43-.649-.343 0-.644.067-.905.204-.262.132-.481.304-.665.519-.18.211-.32.457-.421.734a3.827 3.827 0 00-.204.848zm0 0"/></symbol><symbol overflow="visible" id="x"><path d="M4.352-8.496c.128 0 .273.008.441.023.164.016.328.04.488.067.16.027.305.05.438.078a3.5 3.5 0 01.297.07L5.762-6.96a4.868 4.868 0 00-.586-.152A5.146 5.146 0 004.129-7.2c-.277 0-.555.027-.824.086-.274.058-.453.101-.535.12V0H1.28v-7.969c.352-.129.79-.246 1.313-.36a8.342 8.342 0 011.758-.167zm0 0"/></symbol><symbol overflow="visible" id="y"><path d="M8.625-4.16c0 .66-.098 1.258-.29 1.793-.19.531-.46.992-.808 1.375-.347.383-.757.68-1.238.887a3.927 3.927 0 01-1.57.312 3.842 3.842 0 01-1.567-.312A3.567 3.567 0 011.91-.992a4.134 4.134 0 01-.805-1.375A5.295 5.295 0 01.816-4.16c0-.652.094-1.246.29-1.785.19-.54.46-1 .804-1.383.348-.383.762-.68 1.242-.887a3.922 3.922 0 011.567-.312c.566 0 1.09.101 1.57.312.48.207.89.504 1.238.887s.618.844.809 1.383c.191.539.289 1.133.289 1.785zm-1.555 0c0-.938-.207-1.684-.629-2.23-.421-.551-.996-.825-1.722-.825-.723 0-1.297.274-1.719.824-.422.547-.633 1.293-.633 2.23 0 .938.211 1.684.633 2.231.422.551.996.825 1.719.825.726 0 1.3-.274 1.722-.825.422-.547.63-1.293.63-2.23zm0 0"/></symbol><symbol overflow="visible" id="A"><path d="M4.367.098c-.222 0-.465-.008-.726-.02a13.225 13.225 0 01-.786-.047c-.261-.02-.52-.047-.777-.078a5.658 5.658 0 01-.703-.129V-10.93c.215-.05.45-.093.703-.125.258-.03.516-.058.777-.082.262-.02.52-.035.778-.047.254-.011.496-.015.719-.015.64 0 1.242.047 1.8.144a4.475 4.475 0 011.457.489c.41.226.73.527.965.902s.356.832.356 1.375c0 .61-.145 1.11-.434 1.496-.289.39-.672.68-1.152.871.652.192 1.168.496 1.55.914.387.414.579 1.004.579 1.762 0 1.11-.41 1.941-1.227 2.504-.816.558-2.11.84-3.879.84zM2.91-5.168v3.902c.117.012.258.024.418.036l.488.023c.188.004.403.008.649.008.457 0 .89-.031 1.305-.09.41-.059.77-.16 1.078-.313.308-.148.558-.355.746-.62.183-.266.277-.606.277-1.008 0-.364-.07-.672-.207-.922-.14-.25-.34-.45-.601-.602a2.855 2.855 0 00-.934-.316 6.818 6.818 0 00-1.219-.098zm0-1.246h1.633c.383 0 .746-.027 1.09-.082.34-.055.637-.149.887-.29.25-.136.449-.32.593-.542.145-.223.215-.508.215-.848 0-.32-.074-.59-.223-.808a1.606 1.606 0 00-.617-.528 3.408 3.408 0 00-.922-.297 6.368 6.368 0 00-1.117-.093c-.394 0-.707.004-.93.015a8.466 8.466 0 00-.609.047zm0 0"/></symbol><symbol overflow="visible" id="B"><path d="M3.777.16C2.86.14 2.207-.059 1.824-.434c-.383-.37-.578-.953-.578-1.742v-9.984l1.488-.254v10c0 .242.024.445.067.605.043.16.11.29.207.383a.915.915 0 00.383.219c.16.047.359.086.593.117zm0 0"/></symbol><symbol overflow="visible" id="f"><path d="M3.04-.863c0 .289-.095.539-.286.75-.192.215-.457.32-.785.32-.332 0-.594-.105-.785-.32a1.08 1.08 0 01-.29-.75c0-.29.098-.54.29-.754.191-.211.453-.32.785-.32s.59.109.785.32c.191.215.285.465.285.754zm0-6.383c0 .285-.095.535-.286.75-.192.215-.457.32-.785.32-.332 0-.594-.105-.785-.32a1.094 1.094 0 01-.29-.75c0-.29.098-.54.29-.754.191-.215.453-.32.785-.32s.59.105.785.32c.191.215.285.465.285.754zm0 0"/></symbol><symbol overflow="visible" id="F"><path d="M1.375 0v-11.09h6.688v1.328H2.93v3.348h4.558v1.309H2.93V0zm0 0"/></symbol><symbol overflow="visible" id="G"><path d="M3.215-1.07c.61 0 1.058-.082 1.351-.242.293-.16.442-.415.442-.766 0-.363-.145-.652-.434-.867-.285-.211-.761-.453-1.422-.72a23.42 23.42 0 01-.922-.39 3.208 3.208 0 01-.757-.472 2.1 2.1 0 01-.512-.657C.832-5.44.77-5.754.77-6.129c0-.734.27-1.32.816-1.75.543-.434 1.285-.648 2.223-.648.234 0 .468.011.703.039.234.027.453.058.656.097a5.39 5.39 0 01.894.23l-.269 1.282c-.16-.086-.41-.176-.754-.266-.34-.09-.75-.136-1.23-.136-.418 0-.778.082-1.09.25-.309.164-.461.422-.461.773 0 .184.031.344.101.48.07.141.176.266.32.38.145.109.325.214.536.308.215.098.469.2.77.305.394.148.745.297 1.054.441.309.145.574.313.793.504.219.192.387.426.504.695.117.274.176.606.176 1 0 .77-.285 1.352-.856 1.747-.57.394-1.383.59-2.441.59-.735 0-1.313-.063-1.727-.184a7.646 7.646 0 01-.847-.281l.27-1.278c.171.063.444.16.816.285.375.13.87.196 1.488.196zm0 0"/></symbol><symbol overflow="visible" id="n"><path d="M8-13.488L5.777-7.566H.191l4.72 3.55-2.27 5.97L8-2.079l5.375 4.031-2.285-5.969 4.719-3.55h-5.602zm0 0"/></symbol><symbol overflow="visible" id="d"><path d="M6.258 0a12.465 12.465 0 00-.434-.785 24.716 24.716 0 00-1.183-1.79 41.11 41.11 0 00-.625-.85A30.985 30.985 0 002.223-.77c-.168.289-.313.546-.43.769H.258c.37-.727.816-1.465 1.336-2.215a61.85 61.85 0 011.543-2.152L.383-8.32h1.68l1.984 2.914 2-2.914h1.586L4.945-4.465c.512.695 1.035 1.426 1.575 2.2.539.773.996 1.53 1.367 2.265zm0 0"/></symbol><clipPath id="o"><path d="M0 0h33v18H0z"/></clipPath><clipPath id="a"><path d="M0 0h9v18H0z"/></clipPath><clipPath id="e"><path d="M0 0h4v18H0z"/></clipPath><clipPath id="g"><path d="M0 0h12v18H0z"/></clipPath><clipPath id="i"><path d="M0 0h27v18H0z"/></clipPath><clipPath id="m"><path d="M0 0h16v23H0z"/></clipPath><clipPath id="c"><path d="M0 0h9v18H0z"/></clipPath><clipPath id="s"><path d="M0 0h8v18H0z"/></clipPath><clipPath id="u"><path d="M0 0h34v18H0z"/></clipPath><clipPath id="z"><path d="M0 0h34v18H0z"/></clipPath><clipPath id="C"><path d="M0 0h34v18H0z"/></clipPath><clipPath id="E"><path d="M0 0h38v18H0z"/></clipPath><g id="I" clip-path="url(#c)"><use xlink:href="#d" y="14.912" fill="#fff"/></g><g fill="#fff" id="N" clip-path="url(#o)"><use xlink:href="#p" y="14.912"/><use xlink:href="#q" x="8.512" y="14.912"/><use xlink:href="#r" x="17.695" y="14.912"/><use xlink:href="#r" x="25.136" y="14.912"/></g><g id="K" clip-path="url(#g)"><use xlink:href="#h" y="14.912" fill="#b3b3b3"/></g><g id="O" clip-path="url(#s)"><use xlink:href="#t" y="14.912" fill="#fff"/></g><g fill="#fff" id="S" clip-path="url(#E)"><use xlink:href="#F" y="14.912"/><use xlink:href="#k" x="8.592" y="14.912"/><use xlink:href="#B" x="16.943" y="14.912"/><use xlink:href="#G" x="21.312" y="14.912"/><use xlink:href="#w" x="28.447" y="14.912"/></g><g fill="#fff" id="P" clip-path="url(#u)"><use xlink:href="#v" y="14.912"/><use xlink:href="#w" x="9.168" y="14.912"/><use xlink:href="#x" x="18.112" y="14.912"/><use xlink:href="#y" x="24.288" y="14.912"/></g><g fill="#fff" id="L" clip-path="url(#i)"><use xlink:href="#j" y="14.912"/><use xlink:href="#k" x="11.648" y="14.912"/><use xlink:href="#l" x="20" y="14.912"/></g><g fill="#fff" id="Q" clip-path="url(#z)"><use xlink:href="#A" y="14.912"/><use xlink:href="#y" x="10.288" y="14.912"/><use xlink:href="#y" x="19.729" y="14.912"/><use xlink:href="#B" x="29.169" y="14.912"/></g><g id="J" clip-path="url(#e)"><use xlink:href="#f" y="14.912" fill="#b3b3b3"/></g><g fill="#fff" id="R" clip-path="url(#C)"><use xlink:href="#D" y="14.912"/><use xlink:href="#x" x="9.04" y="14.912"/><use xlink:href="#q" x="15.216" y="14.912"/><use xlink:href="#w" x="24.399" y="14.912"/></g><g id="M" clip-path="url(#m)"><use xlink:href="#n" y="16.96" fill="#b3b3b3"/></g><g id="H" clip-path="url(#a)"><use xlink:href="#b" y="14.912" fill="#b3b3b3"/></g></defs><path fill="#232323" d="M0 0h589v381H0z"/><path d="M2 2h585v377H2zM0 0h589v381H0zm0 0" fill-rule="evenodd" fill="#2d866c"/><use xlink:href="#H" transform="translate(4 6)"/><use xlink:href="#I" transform="translate(17 6)"/><use xlink:href="#J" transform="translate(30 6)"/><use xlink:href="#K" transform="translate(38 6)"/><use xlink:href="#L" transform="translate(54 6)"/><use xlink:href="#J" transform="translate(85 6)"/><use xlink:href="#M" transform="translate(93 4)"/><path d="M38 31h124v1H38zm0 0" fill-rule="evenodd" fill="#b3b3b3"/><use xlink:href="#K" transform="translate(38 36)"/><use xlink:href="#N" transform="translate(54 36)"/><use xlink:href="#J" transform="translate(91 36)"/><use xlink:href="#K" transform="translate(99 36)"/><use xlink:href="#O" transform="translate(115 36)"/><use xlink:href="#J" transform="translate(127 36)"/><use xlink:href="#L" transform="translate(135 36)"/><path d="M99 58h63v1H99zm0 0" fill-rule="evenodd" fill="#b3b3b3"/><use xlink:href="#L" transform="translate(99 63)"/><path d="M38 85h124v1H38zm0 0" fill-rule="evenodd" fill="#b3b3b3"/><use xlink:href="#K" transform="translate(38 90)"/><use xlink:href="#P" transform="translate(54 90)"/><use xlink:href="#J" transform="translate(92 90)"/><use xlink:href="#L" transform="translate(100 90)"/><path d="M38 112h89v1H38zm0 0" fill-rule="evenodd" fill="#b3b3b3"/><use xlink:href="#L" transform="translate(38 117)"/><path d="M4 139h581v1H4zm0 0" fill-rule="evenodd" fill="#b3b3b3"/><use xlink:href="#I" transform="translate(4 150)"/><path d="M18 145h106v110H18zm-1-1h108v112H17zm0 0" fill-rule="evenodd" fill="#4d4d4d"/><use xlink:href="#K" transform="translate(21 150)"/><use xlink:href="#Q" transform="translate(37 150)"/><use xlink:href="#J" transform="translate(75 150)"/><use xlink:href="#M" transform="translate(83 148)"/><path d="M21 175h100v1H21zm0 0" fill-rule="evenodd" fill="#b3b3b3"/><use xlink:href="#K" transform="translate(21 180)"/><use xlink:href="#R" transform="translate(37 180)"/><use xlink:href="#J" transform="translate(75 180)"/><use xlink:href="#Q" transform="translate(83 180)"/><path d="M21 202h100v1H21zm0 0" fill-rule="evenodd" fill="#b3b3b3"/><use xlink:href="#K" transform="translate(21 207)"/><use xlink:href="#S" transform="translate(37 207)"/><use xlink:href="#J" transform="translate(79 207)"/><use xlink:href="#Q" transform="translate(87 207)"/><path d="M21 229h100v1H21zm0 0" fill-rule="evenodd" fill="#b3b3b3"/><use xlink:href="#Q" transform="translate(21 234)"/><path d="M130 145h345v231H130zm-1-1h347v233H129zm0 0" fill-rule="evenodd" fill="#4d4d4d"/><use xlink:href="#H" transform="translate(133 150)"/><use xlink:href="#I" transform="translate(146 150)"/><use xlink:href="#J" transform="translate(159 150)"/><use xlink:href="#K" transform="translate(167 150)"/><use xlink:href="#Q" transform="translate(183 150)"/><use xlink:href="#J" transform="translate(221 150)"/><use xlink:href="#M" transform="translate(229 148)"/><path d="M167 175h100v1H167zm0 0" fill-rule="evenodd" fill="#b3b3b3"/><use xlink:href="#K" transform="translate(167 180)"/><use xlink:href="#R" transform="translate(183 180)"/><use xlink:href="#J" transform="translate(221 180)"/><use xlink:href="#Q" transform="translate(229 180)"/><path d="M167 202h100v1H167zm0 0" fill-rule="evenodd" fill="#b3b3b3"/><use xlink:href="#K" transform="translate(167 207)"/><use xlink:href="#S" transform="translate(183 207)"/><use xlink:href="#J" transform="translate(225 207)"/><use xlink:href="#Q" transform="translate(233 207)"/><path d="M167 229h100v1H167zm0 0" fill-rule="evenodd" fill="#b3b3b3"/><use xlink:href="#Q" transform="translate(167 234)"/><path d="M133 256h339v1H133zm0 0" fill-rule="evenodd" fill="#b3b3b3"/><use xlink:href="#I" transform="translate(133 267)"/><path d="M147 262h106v110H147zm-1-1h108v112H146zm0 0" fill-rule="evenodd" fill="#4d4d4d"/><use xlink:href="#K" transform="translate(150 267)"/><use xlink:href="#Q" transform="translate(166 267)"/><use xlink:href="#J" transform="translate(204 267)"/><use xlink:href="#M" transform="translate(212 265)"/><path d="M150 292h100v1H150zm0 0" fill-rule="evenodd" fill="#b3b3b3"/><use xlink:href="#K" transform="translate(150 297)"/><use xlink:href="#R" transform="translate(166 297)"/><use xlink:href="#J" transform="translate(204 297)"/><use xlink:href="#Q" transform="translate(212 297)"/><path d="M150 319h100v1H150zm0 0" fill-rule="evenodd" fill="#b3b3b3"/><use xlink:href="#K" transform="translate(150 324)"/><use xlink:href="#S" transform="translate(166 324)"/><use xlink:href="#J" transform="translate(208 324)"/><use xlink:href="#Q" transform="translate(216 324)"/><path d="M150 346h100v1H150zm0 0" fill-rule="evenodd" fill="#b3b3b3"/><use xlink:href="#Q" transform="translate(150 351)"/><path d="M259 262h103v110H259zm-1-1h105v112H258zm0 0" fill-rule="evenodd" fill="#4d4d4d"/><use xlink:href="#H" transform="translate(262 267)"/><use xlink:href="#Q" transform="translate(275 267)"/><use xlink:href="#J" transform="translate(313 267)"/><use xlink:href="#M" transform="translate(321 265)"/><path d="M262 292h97v1h-97zm0 0" fill-rule="evenodd" fill="#b3b3b3"/><use xlink:href="#H" transform="translate(262 297)"/><use xlink:href="#R" transform="translate(275 297)"/><use xlink:href="#J" transform="translate(313 297)"/><use xlink:href="#Q" transform="translate(321 297)"/><path d="M262 319h97v1h-97zm0 0" fill-rule="evenodd" fill="#b3b3b3"/><use xlink:href="#H" transform="translate(262 324)"/><use xlink:href="#S" transform="translate(275 324)"/><use xlink:href="#J" transform="translate(317 324)"/><use xlink:href="#Q" transform="translate(325 324)"/><path d="M262 346h97v1h-97zm0 0" fill-rule="evenodd" fill="#b3b3b3"/><use xlink:href="#S" transform="translate(262 351)"/><path d="M368 262h103v110H368zm-1-1h105v112H367zm0 0" fill-rule="evenodd" fill="#4d4d4d"/><use xlink:href="#H" transform="translate(371 267)"/><use xlink:href="#Q" transform="translate(384 267)"/><use xlink:href="#J" transform="translate(422 267)"/><use xlink:href="#M" transform="translate(430 265)"/><path d="M371 292h97v1h-97zm0 0" fill-rule="evenodd" fill="#b3b3b3"/><use xlink:href="#H" transform="translate(371 297)"/><use xlink:href="#R" transform="translate(384 297)"/><use xlink:href="#J" transform="translate(422 297)"/><use xlink:href="#Q" transform="translate(430 297)"/><path d="M371 319h97v1h-97zm0 0" fill-rule="evenodd" fill="#b3b3b3"/><use xlink:href="#H" transform="translate(371 324)"/><use xlink:href="#S" transform="translate(384 324)"/><use xlink:href="#J" transform="translate(426 324)"/><use xlink:href="#Q" transform="translate(434 324)"/><path d="M371 346h97v1h-97zm0 0" fill-rule="evenodd" fill="#b3b3b3"/><use xlink:href="#R" transform="translate(371 351)"/><path d="M481 145h103v110H481zm-1-1h105v112H480zm0 0" fill-rule="evenodd" fill="#4d4d4d"/><use xlink:href="#H" transform="translate(484 150)"/><use xlink:href="#Q" transform="translate(497 150)"/><use xlink:href="#J" transform="translate(535 150)"/><use xlink:href="#M" transform="translate(543 148)"/><path d="M484 175h97v1h-97zm0 0" fill-rule="evenodd" fill="#b3b3b3"/><use xlink:href="#H" transform="translate(484 180)"/><use xlink:href="#R" transform="translate(497 180)"/><use xlink:href="#J" transform="translate(535 180)"/><use xlink:href="#Q" transform="translate(543 180)"/><path d="M484 202h97v1h-97zm0 0" fill-rule="evenodd" fill="#b3b3b3"/><use xlink:href="#H" transform="translate(484 207)"/><use xlink:href="#S" transform="translate(497 207)"/><use xlink:href="#J" transform="translate(539 207)"/><use xlink:href="#Q" transform="translate(547 207)"/><path d="M484 229h97v1h-97zm0 0" fill-rule="evenodd" fill="#b3b3b3"/><use xlink:href="#R" transform="translate(484 234)"/></svg>